<svg width="384" height="316" viewBox="0 0 384 316" fill="none" xmlns="http://www.w3.org/2000/svg">
<path d="M245.671 48.0479C273.881 74.3542 275.424 118.548 249.118 146.758L201.486 197.836L150.408 150.204C122.198 123.898 120.655 79.7038 146.961 51.4941C173.268 23.2845 217.462 21.7415 245.671 48.0479Z" fill="#007DBB"/>
<path d="M335.737 264.774C309.328 292.889 265.129 294.271 237.015 267.863L186.109 220.047L233.926 169.141C260.334 141.027 304.534 139.644 332.648 166.053C360.762 192.461 362.145 236.66 335.737 264.774Z" fill="#004F77"/>
<path d="M50.6207 255.313C78.5777 281.888 122.784 280.767 149.359 252.81L197.477 202.19L146.857 154.072C118.9 127.497 74.6929 128.617 48.1181 156.574C21.5433 184.531 22.6638 228.738 50.6207 255.313Z" fill="#00AAFF"/>
</svg>
